<?xml version="1.0" encoding="UTF-8" standalone="no"?>
<!-- Created with Inkscape (http://www.inkscape.org/) -->

<svg
   width="64"
   height="64"
   viewBox="0 0 16.933332 16.933334"
   version="1.1"
   id="svg1"
   inkscape:version="1.3.2 (091e20e, 2023-11-25)"
   sodipodi:docname="building_icon.svg"
   xmlns:inkscape="http://www.inkscape.org/namespaces/inkscape"
   xmlns:sodipodi="http://sodipodi.sourceforge.net/DTD/sodipodi-0.dtd"
   xmlns="http://www.w3.org/2000/svg"
   xmlns:svg="http://www.w3.org/2000/svg">
  <sodipodi:namedview
     id="namedview1"
     pagecolor="#ffffff"
     bordercolor="#000000"
     borderopacity="0.25"
     inkscape:showpageshadow="2"
     inkscape:pageopacity="0.0"
     inkscape:pagecheckerboard="0"
     inkscape:deskcolor="#d1d1d1"
     inkscape:document-units="mm"
     inkscape:zoom="2.0971131"
     inkscape:cx="10.490612"
     inkscape:cy="27.657068"
     inkscape:window-width="1312"
     inkscape:window-height="449"
     inkscape:window-x="0"
     inkscape:window-y="38"
     inkscape:window-maximized="0"
     inkscape:current-layer="layer1" />
  <defs
     id="defs1" />
  <g
     inkscape:label="Layer 1"
     inkscape:groupmode="layer"
     id="layer1">
    <g
       id="g4984-9-0"
       transform="matrix(0.03651784,0,0,0.03651784,2.3517744,2.6647433)"
       style="fill:#2c3e50;fill-opacity:1;stroke:none;stroke-width:9.64304;stroke-miterlimit:4;stroke-dasharray:none;stroke-opacity:1">
      <g
         style="fill:#2c3e50;fill-opacity:1;stroke:none;stroke-width:9.64304;stroke-miterlimit:4;stroke-dasharray:none;stroke-opacity:1"
         id="g3-7-7">
        <g
           style="fill:#2c3e50;fill-opacity:1;stroke:none;stroke-width:9.64304;stroke-miterlimit:4;stroke-dasharray:none;stroke-opacity:1"
           id="Layer_5_78_-3-8">
          <path
             style="fill:#2c3e50;fill-opacity:1;stroke:none;stroke-width:9.64304;stroke-miterlimit:4;stroke-dasharray:none;stroke-opacity:1"
             id="path6-1-0"
             d="m 344.046,298.535 c 0,0 -3.254,0 -4.338,0 -2.375,0 -2.375,-2.811 -2.375,-2.811 V 99.094 c 0,-4.95 -4.051,-9 -9,-9 0,0 -52.219,0 -69.625,0 -2.5,0 -2.367,-2.37 -2.367,-2.37 V 49.818 c 0,-0.375 0.211,-0.796 1.455,-0.796 2.75,0 5,-2.25 5,-5 v -8.881 c 0,-2.75 -2.25,-5 -5,-5 H 96.13 c -2.75,0 -5,2.25 -5,5 v 8.881 c 0,2.75 2.25,5 5,5 1.453,0 1.456,1.302 1.456,1.453 V 86.85 c 0,0 0.247,3.245 -1.878,3.245 -18.799,0 -75.193,0 -75.193,0 -4.95,0 -9,4.05 -9,9 0,0 0,147.941 0,197.255 0,1.875 -1.016,2.186 -3.068,2.186 -2.654,0 -3.447,0 -3.447,0 -2.75,0 -5,2.25 -5,5 v 10.369 c 0,2.75 2.25,5 5,5 h 339.046 c 2.75,0 5,-2.25 5,-5 v -10.369 c 0,-2.751 -2.25,-5.001 -5,-5.001 z M 196.075,133.209 h 29.924 c 2.201,0 4,1.8 4,4 v 29.925 c 0,2.2 -1.799,4 -4,4 h -29.924 c -2.201,0 -4,-1.8 -4,-4 v -29.925 c 0,-2.2 1.799,-4 4,-4 z m -4,-18.562 V 84.722 c 0,-2.2 1.799,-4 4,-4 h 29.924 c 2.201,0 4,1.8 4,4 v 29.925 c 0,2.2 -1.799,4 -4,4 h -29.924 c -2.201,0 -4,-1.8 -4,-4 z m 4,69.199 h 29.924 c 2.201,0 4,1.8 4,4 v 29.925 c 0,2.2 -1.799,4 -4,4 h -29.924 c -2.201,0 -4,-1.8 -4,-4 v -29.925 c 0,-2.199 1.799,-4 4,-4 z m 4.441,60.162 c 2.199,0 4,1.8 4,4 v 46.335 c 0,2.2 -1.801,4 -4,4 h -46.335 c -2.199,0 -4,-1.8 -4,-4 v -46.335 c 0,-2.2 1.801,-4 4,-4 z M 161.903,114.647 c 0,2.2 -1.8,4 -4,4 h -29.925 c -2.2,0 -4,-1.8 -4,-4 V 84.722 c 0,-2.2 1.8,-4 4,-4 h 29.925 c 2.2,0 4,1.8 4,4 z m -33.925,18.562 h 29.925 c 2.2,0 4,1.8 4,4 v 29.925 c 0,2.2 -1.8,4 -4,4 h -29.925 c -2.2,0 -4,-1.8 -4,-4 v -29.925 c 0,-2.2 1.8,-4 4,-4 z m 0,50.637 h 29.925 c 2.2,0 4,1.8 4,4 v 29.925 c 0,2.2 -1.8,4 -4,4 h -29.925 c -2.2,0 -4,-1.8 -4,-4 v -29.925 c 0,-2.199 1.8,-4 4,-4 z m 140.144,-47.562 c 0,-2.2 1.801,-4 4,-4 h 29.926 c 2.199,0 4,1.8 4,4 v 29.925 c 0,2.2 -1.801,4 -4,4 h -29.926 c -2.199,0 -4,-1.8 -4,-4 z m 0,52.488 c 0,-2.2 1.801,-4 4,-4 h 29.926 c 2.199,0 4,1.8 4,4 v 29.925 c 0,2.2 -1.801,4 -4,4 h -29.926 c -2.199,0 -4,-1.8 -4,-4 z m 0,50.636 c 0,-2.2 1.801,-4 4,-4 h 29.926 c 2.199,0 4,1.8 4,4 v 29.925 c 0,2.2 -1.801,4 -4,4 h -29.926 c -2.199,0 -4,-1.8 -4,-4 z M 42.8,136.284 c 0,-2.2 1.8,-4 4,-4 h 29.925 c 2.2,0 4,1.8 4,4 v 29.925 c 0,2.2 -1.8,4 -4,4 H 46.8 c -2.2,0 -4,-1.8 -4,-4 z m 0,52.488 c 0,-2.2 1.8,-4 4,-4 h 29.925 c 2.2,0 4,1.8 4,4 v 29.925 c 0,2.2 -1.8,4 -4,4 H 46.8 c -2.2,0 -4,-1.8 -4,-4 z m 0,50.636 c 0,-2.2 1.8,-4 4,-4 h 29.925 c 2.2,0 4,1.8 4,4 v 29.925 c 0,2.2 -1.8,4 -4,4 H 46.8 c -2.2,0 -4,-1.8 -4,-4 z" />
        </g>
      </g>
      <g
         id="g8-6-8"
         style="fill:#2c3e50;fill-opacity:1;stroke:none;stroke-width:9.64304;stroke-miterlimit:4;stroke-dasharray:none;stroke-opacity:1" />
      <g
         id="g10-0-9"
         style="fill:#2c3e50;fill-opacity:1;stroke:none;stroke-width:9.64304;stroke-miterlimit:4;stroke-dasharray:none;stroke-opacity:1" />
      <g
         id="g12-2-5"
         style="fill:#2c3e50;fill-opacity:1;stroke:none;stroke-width:9.64304;stroke-miterlimit:4;stroke-dasharray:none;stroke-opacity:1" />
      <g
         id="g14-2-1"
         style="fill:#2c3e50;fill-opacity:1;stroke:none;stroke-width:9.64304;stroke-miterlimit:4;stroke-dasharray:none;stroke-opacity:1" />
      <g
         id="g16-7-5"
         style="fill:#2c3e50;fill-opacity:1;stroke:none;stroke-width:9.64304;stroke-miterlimit:4;stroke-dasharray:none;stroke-opacity:1" />
      <g
         id="g18-4-2"
         style="fill:#2c3e50;fill-opacity:1;stroke:none;stroke-width:9.64304;stroke-miterlimit:4;stroke-dasharray:none;stroke-opacity:1" />
      <g
         id="g20-8-7"
         style="fill:#2c3e50;fill-opacity:1;stroke:none;stroke-width:9.64304;stroke-miterlimit:4;stroke-dasharray:none;stroke-opacity:1" />
      <g
         id="g22-8-3"
         style="fill:#2c3e50;fill-opacity:1;stroke:none;stroke-width:9.64304;stroke-miterlimit:4;stroke-dasharray:none;stroke-opacity:1" />
      <g
         id="g24-8-5"
         style="fill:#2c3e50;fill-opacity:1;stroke:none;stroke-width:9.64304;stroke-miterlimit:4;stroke-dasharray:none;stroke-opacity:1" />
      <g
         id="g26-6-3"
         style="fill:#2c3e50;fill-opacity:1;stroke:none;stroke-width:9.64304;stroke-miterlimit:4;stroke-dasharray:none;stroke-opacity:1" />
      <g
         id="g28-3-8"
         style="fill:#2c3e50;fill-opacity:1;stroke:none;stroke-width:9.64304;stroke-miterlimit:4;stroke-dasharray:none;stroke-opacity:1" />
      <g
         id="g30-7-1"
         style="fill:#2c3e50;fill-opacity:1;stroke:none;stroke-width:9.64304;stroke-miterlimit:4;stroke-dasharray:none;stroke-opacity:1" />
      <g
         id="g32-6-6"
         style="fill:#2c3e50;fill-opacity:1;stroke:none;stroke-width:9.64304;stroke-miterlimit:4;stroke-dasharray:none;stroke-opacity:1" />
      <g
         id="g34-1-7"
         style="fill:#2c3e50;fill-opacity:1;stroke:none;stroke-width:9.64304;stroke-miterlimit:4;stroke-dasharray:none;stroke-opacity:1" />
      <g
         id="g36-9-5"
         style="fill:#2c3e50;fill-opacity:1;stroke:none;stroke-width:9.64304;stroke-miterlimit:4;stroke-dasharray:none;stroke-opacity:1" />
    </g>
  </g>
</svg>
