<?xml version="1.0" encoding="UTF-8" standalone="no"?>
<!-- Generator: Adobe Illustrator 18.1.1, SVG Export Plug-In . SVG Version: 6.00 Build 0)  -->

<svg
   xmlns:dc="http://purl.org/dc/elements/1.1/"
   xmlns:cc="http://creativecommons.org/ns#"
   xmlns:rdf="http://www.w3.org/1999/02/22-rdf-syntax-ns#"
   xmlns:svg="http://www.w3.org/2000/svg"
   xmlns="http://www.w3.org/2000/svg"
   xmlns:sodipodi="http://sodipodi.sourceforge.net/DTD/sodipodi-0.dtd"
   xmlns:inkscape="http://www.inkscape.org/namespaces/inkscape"
   version="1.1"
   id="Capa_1"
   x="0px"
   y="0px"
   viewBox="0 0 349.046 349.046"
   style="enable-background:new 0 0 349.046 349.046;"
   xml:space="preserve"
   inkscape:version="0.91 r13725"
   sodipodi:docname="building.svg"
   inkscape:export-filename="C:\Users\Dimitris_Varvaras\Dropbox\Rufi\Rufi Icons\downloaded\building.png"
   inkscape:export-xdpi="405"
   inkscape:export-ydpi="405"><metadata
     id="metadata42"><rdf:RDF><cc:Work
         rdf:about=""><dc:format>image/svg+xml</dc:format><dc:type
           rdf:resource="http://purl.org/dc/dcmitype/StillImage" /></cc:Work></rdf:RDF></metadata><defs
     id="defs40" /><sodipodi:namedview
     pagecolor="#ffffff"
     bordercolor="#666666"
     borderopacity="1"
     objecttolerance="10"
     gridtolerance="10"
     guidetolerance="10"
     inkscape:pageopacity="0"
     inkscape:pageshadow="2"
     inkscape:window-width="1600"
     inkscape:window-height="878"
     id="namedview38"
     showgrid="false"
     inkscape:zoom="0.67612867"
     inkscape:cx="174.52299"
     inkscape:cy="174.52299"
     inkscape:window-x="-8"
     inkscape:window-y="-8"
     inkscape:window-maximized="1"
     inkscape:current-layer="Capa_1" /><g
     id="g3"
     style="stroke:none;fill:#2c3e50;fill-opacity:1"><g
       id="Layer_5_78_"
       style="stroke:none;fill:#2c3e50;fill-opacity:1"><path
         d="M344.046,298.535c0,0-3.254,0-4.338,0c-2.375,0-2.375-2.811-2.375-2.811V99.094c0-4.95-4.051-9-9-9c0,0-52.219,0-69.625,0    c-2.5,0-2.367-2.37-2.367-2.37V49.818c0-0.375,0.211-0.796,1.455-0.796c2.75,0,5-2.25,5-5v-8.881c0-2.75-2.25-5-5-5H96.13    c-2.75,0-5,2.25-5,5v8.881c0,2.75,2.25,5,5,5c1.453,0,1.456,1.302,1.456,1.453V86.85c0,0,0.247,3.245-1.878,3.245    c-18.799,0-75.193,0-75.193,0c-4.95,0-9,4.05-9,9c0,0,0,147.941,0,197.255c0,1.875-1.016,2.186-3.068,2.186    c-2.654,0-3.447,0-3.447,0c-2.75,0-5,2.25-5,5v10.369c0,2.75,2.25,5,5,5h339.046c2.75,0,5-2.25,5-5v-10.369    C349.046,300.785,346.796,298.535,344.046,298.535z M196.075,133.209h29.924c2.201,0,4,1.8,4,4v29.925c0,2.2-1.799,4-4,4h-29.924    c-2.201,0-4-1.8-4-4v-29.925C192.075,135.009,193.874,133.209,196.075,133.209z M192.075,114.647V84.722c0-2.2,1.799-4,4-4h29.924    c2.201,0,4,1.8,4,4v29.925c0,2.2-1.799,4-4,4h-29.924C193.874,118.647,192.075,116.847,192.075,114.647z M196.075,183.846h29.924    c2.201,0,4,1.8,4,4v29.925c0,2.2-1.799,4-4,4h-29.924c-2.201,0-4-1.8-4-4v-29.925    C192.075,185.647,193.874,183.846,196.075,183.846z M200.516,244.008c2.199,0,4,1.8,4,4v46.335c0,2.2-1.801,4-4,4h-46.335    c-2.199,0-4-1.8-4-4v-46.335c0-2.2,1.801-4,4-4H200.516z M161.903,114.647c0,2.2-1.8,4-4,4h-29.925c-2.2,0-4-1.8-4-4V84.722    c0-2.2,1.8-4,4-4h29.925c2.2,0,4,1.8,4,4V114.647z M127.978,133.209h29.925c2.2,0,4,1.8,4,4v29.925c0,2.2-1.8,4-4,4h-29.925    c-2.2,0-4-1.8-4-4v-29.925C123.978,135.009,125.778,133.209,127.978,133.209z M127.978,183.846h29.925c2.2,0,4,1.8,4,4v29.925    c0,2.2-1.8,4-4,4h-29.925c-2.2,0-4-1.8-4-4v-29.925C123.978,185.647,125.778,183.846,127.978,183.846z M268.122,136.284    c0-2.2,1.801-4,4-4h29.926c2.199,0,4,1.8,4,4v29.925c0,2.2-1.801,4-4,4h-29.926c-2.199,0-4-1.8-4-4V136.284z M268.122,188.772    c0-2.2,1.801-4,4-4h29.926c2.199,0,4,1.8,4,4v29.925c0,2.2-1.801,4-4,4h-29.926c-2.199,0-4-1.8-4-4V188.772z M268.122,239.408    c0-2.2,1.801-4,4-4h29.926c2.199,0,4,1.8,4,4v29.925c0,2.2-1.801,4-4,4h-29.926c-2.199,0-4-1.8-4-4V239.408z M42.8,136.284    c0-2.2,1.8-4,4-4h29.925c2.2,0,4,1.8,4,4v29.925c0,2.2-1.8,4-4,4H46.8c-2.2,0-4-1.8-4-4V136.284z M42.8,188.772c0-2.2,1.8-4,4-4    h29.925c2.2,0,4,1.8,4,4v29.925c0,2.2-1.8,4-4,4H46.8c-2.2,0-4-1.8-4-4V188.772z M42.8,239.408c0-2.2,1.8-4,4-4h29.925    c2.2,0,4,1.8,4,4v29.925c0,2.2-1.8,4-4,4H46.8c-2.2,0-4-1.8-4-4V239.408z"
         id="path6"
         style="stroke:none;fill:#2c3e50;fill-opacity:1" /></g></g><g
     id="g8" /><g
     id="g10" /><g
     id="g12" /><g
     id="g14" /><g
     id="g16" /><g
     id="g18" /><g
     id="g20" /><g
     id="g22" /><g
     id="g24" /><g
     id="g26" /><g
     id="g28" /><g
     id="g30" /><g
     id="g32" /><g
     id="g34" /><g
     id="g36" /></svg>