<?xml version="1.0" encoding="UTF-8" standalone="no"?>
<!-- Generator: Adobe Illustrator 16.0.0, SVG Export Plug-In . SVG Version: 6.00 Build 0)  -->

<svg
   xmlns:dc="http://purl.org/dc/elements/1.1/"
   xmlns:cc="http://creativecommons.org/ns#"
   xmlns:rdf="http://www.w3.org/1999/02/22-rdf-syntax-ns#"
   xmlns:svg="http://www.w3.org/2000/svg"
   xmlns="http://www.w3.org/2000/svg"
   xmlns:sodipodi="http://sodipodi.sourceforge.net/DTD/sodipodi-0.dtd"
   xmlns:inkscape="http://www.inkscape.org/namespaces/inkscape"
   version="1.1"
   id="Capa_1"
   x="0px"
   y="0px"
   width="481.763px"
   height="481.763px"
   viewBox="0 0 481.763 481.763"
   style="enable-background:new 0 0 481.763 481.763;"
   xml:space="preserve"
   inkscape:version="0.91 r13725"
   sodipodi:docname="tools.svg"
   inkscape:export-filename="C:\Users\Dimitris_Varvaras\Dropbox\Rufi\Rufi Icons\tools.png"
   inkscape:export-xdpi="405"
   inkscape:export-ydpi="405"><metadata
     id="metadata41"><rdf:RDF><cc:Work
         rdf:about=""><dc:format>image/svg+xml</dc:format><dc:type
           rdf:resource="http://purl.org/dc/dcmitype/StillImage" /></cc:Work></rdf:RDF></metadata><defs
     id="defs39" /><sodipodi:namedview
     pagecolor="#ffffff"
     bordercolor="#666666"
     borderopacity="1"
     objecttolerance="10"
     gridtolerance="10"
     guidetolerance="10"
     inkscape:pageopacity="0"
     inkscape:pageshadow="2"
     inkscape:window-width="1600"
     inkscape:window-height="878"
     id="namedview37"
     showgrid="false"
     inkscape:zoom="0.48986742"
     inkscape:cx="240.8815"
     inkscape:cy="240.8815"
     inkscape:window-x="-8"
     inkscape:window-y="-8"
     inkscape:window-maximized="1"
     inkscape:current-layer="Capa_1" /><path
     inkscape:connector-curvature="0"
     id="path5"
     d="M 453.584,405.715 298.332,250.457 c -1.454,-1.46 -3.009,-2.755 -4.61,-3.967 l 27.497,-28.954 c 1.406,-1.416 2.736,-2.905 3.96,-4.436 36.505,13.77 79.34,6.029 108.682,-23.309 21.402,-21.409 32.195,-51.013 29.583,-81.226 -0.283,-3.419 -2.548,-6.375 -5.769,-7.542 -3.228,-1.179 -6.845,-0.375 -9.274,2.045 L 398.644,152.822 348.267,140.123 333.98,88.156 383.725,38.408 c 2.441,-2.433 3.239,-6.053 2.063,-9.277 -1.171,-3.233 -4.126,-5.479 -7.555,-5.78 -30.21,-2.604 -59.816,8.183 -81.226,29.592 -29.317,29.317 -37.078,72.129 -23.323,108.619 -1.496,1.265 -2.985,2.61 -4.445,4.049 l -40.471,38.869 -74.319,-74.312 c -0.928,-0.931 -1.918,-1.75 -2.938,-2.519 0.872,-1.53 1.72,-3.105 2.512,-4.74 15.696,3.021 44.39,-27.544 68.76,-51.905 L 151.787,0 C 120.04,31.752 96.858,53.061 99.867,68.757 92.609,72.303 86.139,76.639 81.541,81.243 L 71.54,91.241 c -6.493,6.502 -10.409,14.588 -11.807,23.014 -0.97,1.108 -1.957,2.275 -2.938,3.523 l -3.727,4.684 c -0.104,0.115 -0.425,0.576 -0.514,0.694 l -3.378,4.729 c -2.113,2.819 -3.96,5.881 -5.746,8.836 -0.659,1.097 -1.33,2.196 -2.015,3.292 -0.109,0.189 -0.216,0.375 -0.313,0.562 l -1.501,2.828 c -1.814,3.402 -3.697,6.924 -5.308,10.799 l -0.26,0.617 c -1.9,4.513 -3.869,9.186 -5.243,14.139 l -0.665,2.143 c -0.544,1.762 -1.097,3.52 -1.605,5.621 l -1.38,6.833 c -1.029,4.273 -1.375,8.488 -1.676,12.221 l -0.201,2.453 c -0.508,3.871 -0.36,7.521 -0.222,10.742 0.047,1.079 0.089,2.137 0.121,3.564 0.036,0.594 0.042,1.173 0.06,1.744 0.035,1.439 0.074,3.074 0.352,4.793 l 0.866,5.545 c 0.186,1.072 0.343,2.113 0.491,3.111 0.331,2.252 0.671,4.581 1.342,6.792 l 3.632,12.602 c 1.12,3.83 4.758,6.366 8.739,6.088 2.107,-0.147 4.001,-1.058 5.411,-2.471 1.259,-1.259 2.131,-2.914 2.397,-4.781 l 1.883,-12.812 c 0.139,-1.017 0.576,-2.506 1.028,-4.082 0.322,-1.093 0.635,-2.208 0.877,-3.159 l 1.339,-4.782 c 0.163,-0.647 0.479,-1.277 0.757,-1.924 0.266,-0.6 0.532,-1.218 0.769,-1.827 0.449,-1.017 0.872,-2.033 1.288,-3.076 0.825,-2.045 1.605,-3.969 2.796,-5.858 0.518,-0.872 0.999,-1.738 1.49,-2.622 1.241,-2.222 2.42,-4.32 3.821,-6.059 0.088,-0.103 0.168,-0.218 0.26,-0.34 l 3.159,-4.356 c 0.647,-0.819 1.374,-1.593 2.081,-2.373 0.502,-0.55 1.005,-1.103 1.64,-1.83 1.865,-2.243 4.055,-4.199 6.168,-6.124 l 1.132,-1.017 c 1.566,-1.454 3.378,-2.822 5.284,-4.268 0.78,-0.583 1.543,-1.162 2.293,-1.732 0.963,-0.624 1.895,-1.247 2.813,-1.865 1.72,-1.162 3.209,-2.167 4.93,-3.062 l 3.745,-2.131 3.789,-1.858 c 1.321,-0.683 2.622,-1.209 3.821,-1.693 0.712,-0.296 1.416,-0.583 2.069,-0.866 0.665,-0.23 1.306,-0.479 1.912,-0.703 0.812,-0.296 1.513,-0.58 2.465,-0.828 l 1.022,-0.23 c 1.114,1.803 2.42,3.517 3.987,5.083 l 73.515,73.518 -156.938,150.74 c -0.062,0.059 -0.121,0.124 -0.178,0.178 -19.529,19.529 -22.709,48.131 -3.177,67.666 19.532,19.529 46.316,14.522 65.84,-5 0.086,-0.083 0.16,-0.16 0.236,-0.249 L 232.816,310.635 c 0.812,0.957 1.616,1.92 2.518,2.824 l 155.24,155.253 c 17.396,17.401 45.613,17.401 63.009,0 17.391,-17.39 17.391,-45.608 10e-4,-62.997 z M 73.871,440.564 c -7.191,7.199 -18.855,7.199 -26.052,0 -7.19,-7.193 -7.19,-18.85 0,-26.043 7.19,-7.188 18.855,-7.193 26.052,0 7.184,7.194 7.184,18.85 0,26.043 z"
     style="stroke:none;fill:#d1d4d0;fill-opacity:1" /><g
     id="g7" /><g
     id="g9" /><g
     id="g11" /><g
     id="g13" /><g
     id="g15" /><g
     id="g17" /><g
     id="g19" /><g
     id="g21" /><g
     id="g23" /><g
     id="g25" /><g
     id="g27" /><g
     id="g29" /><g
     id="g31" /><g
     id="g33" /><g
     id="g35" /></svg>