<?xml version="1.0" encoding="iso-8859-1"?>
<!-- Generator: Adobe Illustrator 16.0.0, SVG Export Plug-In . SVG Version: 6.00 Build 0)  -->
<!DOCTYPE svg PUBLIC "-//W3C//DTD SVG 1.1//EN" "http://www.w3.org/Graphics/SVG/1.1/DTD/svg11.dtd">
<svg version="1.1" id="Capa_1" xmlns="http://www.w3.org/2000/svg" xmlns:xlink="http://www.w3.org/1999/xlink" x="0px" y="0px"
	 width="35px" height="34.999px" viewBox="0 0 35 34.999" style="enable-background:new 0 0 35 34.999;" xml:space="preserve">
<g>
	<path d="M23.628,14.77l-0.886,0.885c-2.892-2.891-7.595-2.891-10.487,0l-0.885-0.885C14.75,11.391,20.25,11.39,23.628,14.77z
		 M12.9,16.3l0.885,0.886c2.047-2.048,5.379-2.048,7.427,0l0.885-0.886C19.562,13.765,15.437,13.765,12.9,16.3z M14.479,17.879
		l0.885,0.885c1.177-1.177,3.092-1.177,4.269,0l0.886-0.885C18.853,16.214,16.146,16.214,14.479,17.879z M27.666,2.364v30.271
		c0,1.301-1.062,2.364-2.364,2.364H9.697c-1.3,0.001-2.364-1.062-2.364-2.363V2.364C7.333,1.064,8.397,0,9.697,0h15.604
		C26.601,0,27.666,1.063,27.666,2.364z M14.717,1.99c0,0.158,0.128,0.286,0.286,0.286h4.992c0.158,0,0.286-0.128,0.286-0.286
		c0-0.158-0.128-0.287-0.286-0.287h-4.992C14.846,1.704,14.717,1.832,14.717,1.99z M18.681,32.636c0-0.653-0.529-1.182-1.182-1.182
		s-1.182,0.528-1.182,1.182s0.529,1.183,1.182,1.183S18.681,33.289,18.681,32.636z M26.021,3.749H8.979v26.876h17.042V3.749z"/>
</g>
<g>
</g>
<g>
</g>
<g>
</g>
<g>
</g>
<g>
</g>
<g>
</g>
<g>
</g>
<g>
</g>
<g>
</g>
<g>
</g>
<g>
</g>
<g>
</g>
<g>
</g>
<g>
</g>
<g>
</g>
</svg>
