<?xml version="1.0" encoding="UTF-8" standalone="no"?>
<!-- Created with Inkscape (http://www.inkscape.org/) -->

<svg
   xmlns:dc="http://purl.org/dc/elements/1.1/"
   xmlns:cc="http://creativecommons.org/ns#"
   xmlns:rdf="http://www.w3.org/1999/02/22-rdf-syntax-ns#"
   xmlns:svg="http://www.w3.org/2000/svg"
   xmlns="http://www.w3.org/2000/svg"
   xmlns:sodipodi="http://sodipodi.sourceforge.net/DTD/sodipodi-0.dtd"
   xmlns:inkscape="http://www.inkscape.org/namespaces/inkscape"
   width="210mm"
   height="297mm"
   viewBox="0 0 744.09448819 1052.3622047"
   id="svg4164"
   version="1.1"
   inkscape:version="0.91 r13725"
   sodipodi:docname="start.svg">
  <defs
     id="defs4166" />
  <sodipodi:namedview
     id="base"
     pagecolor="#ffffff"
     bordercolor="#666666"
     borderopacity="1.0"
     inkscape:pageopacity="0.0"
     inkscape:pageshadow="2"
     inkscape:zoom="0.24748737"
     inkscape:cx="-110.63311"
     inkscape:cy="154.36954"
     inkscape:document-units="px"
     inkscape:current-layer="layer1"
     showgrid="false"
     inkscape:window-width="1600"
     inkscape:window-height="878"
     inkscape:window-x="-8"
     inkscape:window-y="-8"
     inkscape:window-maximized="1" />
  <metadata
     id="metadata4169">
    <rdf:RDF>
      <cc:Work
         rdf:about="">
        <dc:format>image/svg+xml</dc:format>
        <dc:type
           rdf:resource="http://purl.org/dc/dcmitype/StillImage" />
        <dc:title></dc:title>
      </cc:Work>
    </rdf:RDF>
  </metadata>
  <g
     inkscape:label="Layer 1"
     inkscape:groupmode="layer"
     id="layer1">
    <g
       id="g4149"
       transform="matrix(6.5746576,0,0,6.5746576,290.11991,162.61549)">
      <path
         inkscape:connector-curvature="0"
         id="path7"
         d="M 8,0 C 3.5,0 0,3.5 0,8 c 0,4.5 3.5,8 8,8 4.5,0 8,-3.5 8,-8 C 16,3.5 12.5,0 8,0 Z M 8,14 C 4.5,14 2,11.5 2,8 2,4.5 4.5,2 8,2 c 3.5,0 6,2.5 6,6 0,3.5 -2.5,6 -6,6 z"
         style="fill:#2c3e50;fill-opacity:1;stroke:none" />
      <polygon
         id="polygon9"
         points="11,8 6,4 6,12 "
         style="fill:#2c3e50;fill-opacity:1;stroke:none" />
    </g>
  </g>
</svg>
