<?xml version="1.0" encoding="UTF-8" standalone="no"?>
<!-- Generator: Adobe Illustrator 16.0.0, SVG Export Plug-In . SVG Version: 6.00 Build 0)  -->

<svg
   xmlns:dc="http://purl.org/dc/elements/1.1/"
   xmlns:cc="http://creativecommons.org/ns#"
   xmlns:rdf="http://www.w3.org/1999/02/22-rdf-syntax-ns#"
   xmlns:svg="http://www.w3.org/2000/svg"
   xmlns="http://www.w3.org/2000/svg"
   xmlns:sodipodi="http://sodipodi.sourceforge.net/DTD/sodipodi-0.dtd"
   xmlns:inkscape="http://www.inkscape.org/namespaces/inkscape"
   version="1.1"
   id="Capa_1"
   x="0px"
   y="0px"
   width="579.165px"
   height="579.164px"
   viewBox="0 0 579.165 579.164"
   style="enable-background:new 0 0 579.165 579.164;"
   xml:space="preserve"
   inkscape:version="0.91 r13725"
   sodipodi:docname="touch-screen-phone1.svg"><metadata
     id="metadata51"><rdf:RDF><cc:Work
         rdf:about=""><dc:format>image/svg+xml</dc:format><dc:type
           rdf:resource="http://purl.org/dc/dcmitype/StillImage" /></cc:Work></rdf:RDF></metadata><defs
     id="defs49" /><sodipodi:namedview
     pagecolor="#ffffff"
     bordercolor="#666666"
     borderopacity="1"
     objecttolerance="10"
     gridtolerance="10"
     guidetolerance="10"
     inkscape:pageopacity="0"
     inkscape:pageshadow="2"
     inkscape:window-width="1600"
     inkscape:window-height="878"
     id="namedview47"
     showgrid="false"
     inkscape:zoom="1.1525385"
     inkscape:cx="129.63017"
     inkscape:cy="319.91744"
     inkscape:window-x="-8"
     inkscape:window-y="-8"
     inkscape:window-maximized="1"
     inkscape:current-layer="a3423" /><g
     id="g17" /><g
     id="g19" /><g
     id="g21" /><g
     id="g23" /><g
     id="g25" /><g
     id="g27" /><g
     id="g29" /><g
     id="g31" /><g
     id="g33" /><g
     id="g35" /><g
     id="g37" /><g
     id="g39" /><g
     id="g41" /><g
     id="g43" /><g
     id="g45" /><g
     inkscape:groupmode="layer"
     id="layer1"
     inkscape:label="Layer 1"><a
       id="a3423"
       transform="matrix(0.7329156,0,0,0.7329156,106.71068,12.549872)"><path
         d="m 301.2209,321.84626 c 0.604,0.075 1.194,0.352 1.801,0.352 3.719,0 7.457,-1.424 10.305,-4.27 15.066,-15.058 23.355,-35.089 23.355,-56.396 0,-21.306 -8.289,-41.341 -23.355,-56.396 -15.045,-15.063 -35.08,-23.354 -56.385,-23.354 -21.306,0 -41.322,8.301 -56.388,23.354 -15.063,15.055 -23.354,35.088 -23.354,56.396 0,20.424 7.797,39.547 21.687,54.373 2.066,-0.291 4.06,-0.775 6.181,-0.775 1.747,0 3.474,0.105 5.18,0.293 l 0,-34.348 c -2.56,-6.11 -3.907,-12.721 -3.907,-19.543 0,-13.517 5.255,-26.229 14.819,-35.792 19.123,-19.104 52.438,-19.104 71.563,0 9.562,9.563 14.817,22.273 14.817,35.792 0,8.576 -2.336,16.713 -6.319,24.047 l 0,36.267 0,0 z"
         id="path11"
         inkscape:connector-curvature="0"
         style="stroke:none;fill:#2c3e50;fill-opacity:1" /><path
         d="m 336.7929,355.72926 c 6.148,0 12.013,1.66 17.586,4.031 0.136,-0.123 0.322,-0.168 0.457,-0.304 26.164,-26.151 40.564,-60.928 40.564,-97.926 0,-36.996 -14.4,-71.771 -40.564,-97.924 -53.996,-53.976 -141.818,-53.976 -195.812,0 -26.161,26.153 -40.563,60.929 -40.563,97.924 0,26.285 7.401,51.385 21.004,73.139 4.268,-1.336 8.766,-2.182 13.488,-2.182 5.104,0 10.037,0.846 14.629,2.412 1.308,-1.898 2.958,-3.502 4.535,-5.17 -15.596,-19.353 -24.515,-42.983 -24.515,-68.197 0,-29.207 11.365,-56.669 32.026,-77.322 42.63,-42.611 111.973,-42.63 154.605,0 20.66,20.653 32.022,48.113 32.022,77.322 0,29.208 -11.362,56.672 -32.022,77.322 -4.744,4.742 -5.295,11.84 -2.125,17.406 1.575,-0.16 3.091,-0.531 4.685,-0.531 z"
         id="path13"
         inkscape:connector-curvature="0"
         style="stroke:none;fill:#2c3e50;fill-opacity:1" /><path
         d="m 351.2129,379.52226 c -4.438,-2.951 -9.446,-4.365 -14.418,-4.365 -8.401,0 -16.678,4.07 -21.703,11.613 l -29.067,43.625 c -0.437,0.654 -1.154,1.022 -1.916,1.022 -0.228,0 -0.439,-0.024 -0.664,-0.096 -0.986,-0.293 -1.65,-1.195 -1.65,-2.209 l 0,-171.081 c 0,-14.39 -11.688,-26.059 -26.052,-26.059 -14.38,0 -26.067,11.668 -26.067,26.059 l 0,94.376 c -3.434,-10.348 -13.111,-17.852 -24.609,-17.852 -14.4,0 -26.049,11.657 -26.049,26.039 l 0,17.379 c 0,-14.392 -11.668,-26.058 -26.067,-26.058 -14.362,0 -26.03,11.668 -26.03,26.058 l 0,10.274 c -2.732,-0.977 -5.616,-1.596 -8.69,-1.596 -14.38,0 -26.049002,11.658 -26.049002,26.049 l 0,163.515 c 0,5.69 4.61,10.311 10.320002,10.311 l 136.164,0 c 3.438,0 6.66,-1.717 8.558,-4.582 l 111.215,-166.303 c 7.991,-11.968 4.764,-28.14 -7.226,-36.119 z"
         id="path15"
         inkscape:connector-curvature="0"
         style="stroke:none;fill:#2c3e50;fill-opacity:1" /></a></g></svg>